<?xml version="1.0" encoding="UTF-8"?>
<svg id="Layer_1" xmlns="http://www.w3.org/2000/svg" version="1.1" xmlns:svgjs="http://svgjs.dev/svgjs" viewBox="0 0 800 800">
  <!-- Generator: Adobe Illustrator 29.5.1, SVG Export Plug-In . SVG Version: 2.1.0 Build 141)  -->
  <defs>
    <style>
      .st0 {
        opacity: 0;
        stroke-miterlimit: 4;
      }

      .st0, .st1, .st2, .st3, .st4, .st5, .st6, .st7, .st8, .st9, .st10, .st11, .st12, .st13, .st14, .st15, .st16, .st17, .st18, .st19, .st20, .st21, .st22, .st23, .st24, .st25, .st26, .st27, .st28, .st29, .st30, .st31, .st32 {
        fill: none;
        isolation: isolate;
        stroke: #fff;
      }

      .st1 {
        opacity: 0;
        stroke-miterlimit: 4;
      }

      .st2 {
        opacity: 0;
        stroke-miterlimit: 4;
      }

      .st3 {
        opacity: 0;
        stroke-miterlimit: 4;
      }

      .st4 {
        opacity: 0;
        stroke-miterlimit: 4;
      }

      .st5 {
        opacity: 0;
        stroke-miterlimit: 4;
      }

      .st6 {
        opacity: 0;
        stroke-miterlimit: 4;
      }

      .st7 {
        opacity: 0;
        stroke-miterlimit: 4;
      }

      .st8 {
        opacity: 0;
        stroke-miterlimit: 4;
      }

      .st9 {
        opacity: 0;
        stroke-miterlimit: 4;
      }

      .st10 {
        opacity: 0;
        stroke-miterlimit: 4;
      }

      .st11 {
        opacity: 0;
        stroke-miterlimit: 4;
      }

      .st12 {
        opacity: 0;
        stroke-miterlimit: 4;
      }

      .st13 {
        opacity: 0;
        stroke-miterlimit: 4;
      }

      .st14 {
        opacity: 0;
        stroke-miterlimit: 4;
      }

      .st15 {
        opacity: 0;
        stroke-miterlimit: 4;
      }

      .st16 {
        opacity: 0;
        stroke-miterlimit: 4;
      }

      .st17 {
        opacity: 0;
        stroke-miterlimit: 4;
      }

      .st18 {
        opacity: 0;
        stroke-miterlimit: 4;
      }

      .st19 {
        opacity: 0;
        stroke-miterlimit: 4;
      }

      .st20 {
        opacity: 0;
        stroke-miterlimit: 4;
      }

      .st21 {
        opacity: 0;
        stroke-miterlimit: 4;
      }

      .st22 {
        opacity: 0;
        stroke-miterlimit: 4;
      }

      .st23 {
        opacity: 0;
        stroke-miterlimit: 4;
      }

      .st24 {
        opacity: 0;
        stroke-miterlimit: 4;
      }

      .st25 {
        opacity: 0;
        stroke-miterlimit: 4;
      }

      .st26 {
        opacity: 0;
        stroke-miterlimit: 4;
      }

      .st27 {
        opacity: 0;
        stroke-miterlimit: 4;
      }

      .st28 {
        opacity: 0;
        stroke-miterlimit: 4;
      }

      .st29 {
        opacity: 0;
        stroke-miterlimit: 4;
      }

      .st30 {
        opacity: 0;
        stroke-miterlimit: 4;
      }

      .st31 {
        opacity: 0;
        stroke-miterlimit: 4;
      }

      .st32 {
        opacity: 0;
        stroke-miterlimit: 4;
      }
    </style>
  </defs>
  <polygon class="st31" points="832.5 130.6 757.1 -116.1 548.1 82.7 832.5 130.6"/>
  <polygon class="st30" points="847.8 166.7 788.2 -85.6 565.6 100.1 847.8 166.7"/>
  <polygon class="st4" points="860.2 203.7 816.9 -53.3 581.5 118.5 860.2 203.7"/>
  <polygon class="st18" points="869.7 241.2 843.1 -19.4 595.8 137.6 869.7 241.2"/>
  <polygon class="st15" points="876.3 279.1 866.6 16 608.4 157.3 876.3 279.1"/>
  <polygon class="st6" points="880 317.1 887.4 52.7 619.2 177.5 880 317.1"/>
  <polygon class="st13" points="880.8 355.1 905.4 90.3 628.3 198.1 880.8 355.1"/>
  <polygon class="st7" points="878.6 392.8 920.6 128.9 635.7 218.9 878.6 392.8"/>
  <polygon class="st5" points="873.7 429.9 932.9 168.1 641.4 239.7 873.7 429.9"/>
  <polygon class="st25" points="865.9 466.4 942.4 207.7 645.4 260.6 865.9 466.4"/>
  <polygon class="st12" points="855.5 502 949 247.5 647.8 281.2 855.5 502"/>
  <polygon class="st10" points="842.4 536.4 952.8 287.4 648.5 301.5 842.4 536.4"/>
  <polygon class="st16" points="826.7 569.6 953.7 327 647.7 321.4 826.7 569.6"/>
  <polygon class="st32" points="808.7 601.3 951.8 366.3 645.3 340.7 808.7 601.3"/>
  <polygon class="st21" points="788.4 631.3 947.1 405.1 641.5 359.4 788.4 631.3"/>
  <polygon class="st23" points="765.9 659.5 939.8 443 636.4 377.3 765.9 659.5"/>
  <polygon class="st26" points="741.4 685.7 929.9 480 630 394.4 741.4 685.7"/>
  <polygon class="st0" points="715.1 709.9 917.5 515.9 622.4 410.5 715.1 709.9"/>
  <polygon class="st3" points="687.2 731.8 902.7 550.5 613.7 425.6 687.2 731.8"/>
  <polygon class="st14" points="657.7 751.3 885.6 583.7 604 439.6 657.7 751.3"/>
  <polygon class="st19" points="627 768.5 866.4 615.2 593.4 452.5 627 768.5"/>
  <polygon class="st29" points="595.1 783.1 845.1 645.1 582.1 464.1 595.1 783.1"/>
  <polygon class="st27" points="562.4 795.1 822 673 570.1 474.5 562.4 795.1"/>
  <polygon class="st28" points="528.9 804.5 797.1 699 557.6 483.6 528.9 804.5"/>
  <polygon class="st22" points="495 811.2 770.7 722.9 544.6 491.4 495 811.2"/>
  <polygon class="st2" points="460.7 815.2 742.9 744.7 531.3 497.8 460.7 815.2"/>
  <polygon class="st24" points="426.4 816.5 713.8 764.2 517.8 502.9 426.4 816.5"/>
  <polygon class="st17" points="392.2 815 683.7 781.3 504.2 506.7 392.2 815"/>
  <polygon class="st20" points="358.3 810.9 652.6 796.1 490.7 509.2 358.3 810.9"/>
  <polygon class="st11" points="324.9 804.2 620.9 808.5 477.3 510.3 324.9 804.2"/>
  <polygon class="st8" points="292.3 794.8 588.7 818.5 464.1 510.2 292.3 794.8"/>
  <polygon class="st9" points="260.6 782.9 556.1 826 451.4 508.9 260.6 782.9"/>
  <polygon class="st1" points="230 768.6 523.4 831 439.1 506.4 230 768.6"/>
</svg>