<?xml version="1.0" encoding="UTF-8"?>
<svg id="Layer_1" xmlns="http://www.w3.org/2000/svg" version="1.1" xmlns:svgjs="http://svgjs.dev/svgjs" viewBox="0 0 800 800">
  <!-- Generator: Adobe Illustrator 29.5.1, SVG Export Plug-In . SVG Version: 2.1.0 Build 141)  -->
  <defs>
    <style>
      .st0 {
        opacity: 0;
        stroke-miterlimit: 4;
      }

      .st0, .st1, .st2, .st3, .st4, .st5, .st6, .st7, .st8, .st9, .st10, .st11, .st12, .st13, .st14, .st15, .st16, .st17, .st18, .st19, .st20, .st21, .st22, .st23, .st24, .st25, .st26, .st27, .st28, .st29, .st30, .st31, .st32 {
        fill: none;
        isolation: isolate;
        stroke: #fff;
      }

      .st1 {
        opacity: 0;
        stroke-miterlimit: 4;
      }

      .st2 {
        opacity: 0;
        stroke-miterlimit: 4;
      }

      .st3 {
        opacity: 0;
        stroke-miterlimit: 4;
      }

      .st4 {
        opacity: 0;
        stroke-miterlimit: 4;
      }

      .st5 {
        opacity: 0;
        stroke-miterlimit: 4;
      }

      .st6 {
        opacity: 0;
        stroke-miterlimit: 4;
      }

      .st7 {
        opacity: 0;
        stroke-miterlimit: 4;
      }

      .st8 {
        opacity: 0;
        stroke-miterlimit: 4;
      }

      .st9 {
        opacity: 0;
        stroke-miterlimit: 4;
      }

      .st10 {
        opacity: 0;
        stroke-miterlimit: 4;
      }

      .st11 {
        opacity: 0;
        stroke-miterlimit: 4;
      }

      .st12 {
        opacity: 0;
        stroke-miterlimit: 4;
      }

      .st13 {
        opacity: 0;
        stroke-miterlimit: 4;
      }

      .st14 {
        opacity: 0;
        stroke-miterlimit: 4;
      }

      .st15 {
        opacity: 0;
        stroke-miterlimit: 4;
      }

      .st16 {
        opacity: 0;
        stroke-miterlimit: 4;
      }

      .st17 {
        opacity: 0;
        stroke-miterlimit: 4;
      }

      .st18 {
        opacity: 0;
        stroke-miterlimit: 4;
      }

      .st19 {
        opacity: 0;
        stroke-miterlimit: 4;
      }

      .st20 {
        opacity: 0;
        stroke-miterlimit: 4;
      }

      .st21 {
        opacity: 0;
        stroke-miterlimit: 4;
      }

      .st22 {
        opacity: 0;
        stroke-miterlimit: 4;
      }

      .st23 {
        opacity: 0;
        stroke-miterlimit: 4;
      }

      .st24 {
        opacity: 0;
        stroke-miterlimit: 4;
      }

      .st25 {
        opacity: 0;
        stroke-miterlimit: 4;
      }

      .st26 {
        opacity: 0;
        stroke-miterlimit: 4;
      }

      .st27 {
        opacity: 0;
        stroke-miterlimit: 4;
      }

      .st28 {
        opacity: 0;
        stroke-miterlimit: 4;
      }

      .st29 {
        opacity: 0;
        stroke-miterlimit: 4;
      }

      .st30 {
        opacity: 0;
        stroke-miterlimit: 4;
      }

      .st31 {
        opacity: 0;
        stroke-miterlimit: 4;
      }

      .st32 {
        opacity: 0;
        stroke-miterlimit: 4;
      }
    </style>
  </defs>
  <polygon class="st31" points="251.9 80.7 42.9 -118.1 -32.6 128.7 251.9 80.7"/>
  <polygon class="st30" points="234.3 98.2 11.7 -87.6 -47.8 164.8 234.3 98.2"/>
  <polygon class="st4" points="218.4 116.5 -17 -55.3 -60.3 201.7 218.4 116.5"/>
  <polygon class="st18" points="204.1 135.6 -43.1 -21.3 -69.8 239.2 204.1 135.6"/>
  <polygon class="st15" points="191.6 155.4 -66.6 14.1 -76.4 277.1 191.6 155.4"/>
  <polygon class="st6" points="180.7 175.6 -87.4 50.7 -80.1 315.2 180.7 175.6"/>
  <polygon class="st13" points="171.6 196.1 -105.5 88.4 -80.8 353.1 171.6 196.1"/>
  <polygon class="st7" points="164.2 216.9 -120.7 126.9 -78.7 390.8 164.2 216.9"/>
  <polygon class="st5" points="158.5 237.8 -133 166.1 -73.8 428 158.5 237.8"/>
  <polygon class="st25" points="154.5 258.6 -142.5 205.7 -66 464.5 154.5 258.6"/>
  <polygon class="st12" points="152.2 279.2 -149.1 245.6 -55.5 500 152.2 279.2"/>
  <polygon class="st10" points="151.4 299.5 -152.8 285.4 -42.4 534.5 151.4 299.5"/>
  <polygon class="st16" points="152.3 319.4 -153.7 325.1 -26.8 567.6 152.3 319.4"/>
  <polygon class="st32" points="154.6 338.8 -151.8 364.4 -8.8 599.3 154.6 338.8"/>
  <polygon class="st21" points="158.4 357.4 -147.2 403.1 11.6 629.3 158.4 357.4"/>
  <polygon class="st23" points="163.5 375.4 -139.9 441.1 34 657.5 163.5 375.4"/>
  <polygon class="st26" points="169.9 392.4 -130 478.1 58.5 683.8 169.9 392.4"/>
  <polygon class="st0" points="177.5 408.6 -117.6 514 84.8 707.9 177.5 408.6"/>
  <polygon class="st3" points="186.2 423.7 -102.8 548.6 112.7 729.8 186.2 423.7"/>
  <polygon class="st14" points="195.9 437.7 -85.7 581.7 142.2 749.4 195.9 437.7"/>
  <polygon class="st19" points="206.5 450.5 -66.5 613.3 172.9 766.5 206.5 450.5"/>
  <polygon class="st29" points="217.8 462.2 -45.2 643.1 204.8 781.2 217.8 462.2"/>
  <polygon class="st27" points="229.8 472.5 -22.1 671.1 237.5 793.2 229.8 472.5"/>
  <polygon class="st28" points="242.4 481.6 2.8 697.1 271 802.6 242.4 481.6"/>
  <polygon class="st22" points="255.4 489.4 29.2 721 305 809.3 255.4 489.4"/>
  <polygon class="st2" points="268.7 495.9 57.1 742.7 339.2 813.2 268.7 495.9"/>
  <polygon class="st24" points="282.1 501 86.1 762.2 373.6 814.5 282.1 501"/>
  <polygon class="st17" points="295.7 504.7 116.3 779.4 407.8 813.1 295.7 504.7"/>
  <polygon class="st20" points="309.3 507.2 147.3 794.2 441.7 809 309.3 507.2"/>
  <polygon class="st11" points="322.6 508.4 179 806.6 475 802.2 322.6 508.4"/>
  <polygon class="st8" points="335.8 508.3 211.2 816.5 507.7 792.9 335.8 508.3"/>
  <polygon class="st9" points="348.6 506.9 243.8 824 539.4 781 348.6 506.9"/>
  <polygon class="st1" points="360.9 504.4 276.5 829.1 570 766.7 360.9 504.4"/>
</svg>