<svg xmlns="http://www.w3.org/2000/svg" version="1.1" xmlns:xlink="http://www.w3.org/1999/xlink" xmlns:svgjs="http://svgjs.dev/svgjs" viewBox="0 0 800 800"><g transform="matrix(1,0,0,1,0,0)"><polygon points="138,635 9,893 267,893" stroke-width="0.5" stroke="#e0e0e0" fill="none" opacity="0.04" transform="rotate(107, 400, 400)"></polygon><polygon points="144.3125,630.59375 14.65625,889.90625 273.96875,889.90625" stroke-width="0.5" stroke="#e1e1e1" fill="none" opacity="0.0415625" transform="rotate(103.28125, 400, 400)"></polygon><polygon points="150.625,626.1875 20.3125,886.8125 280.9375,886.8125" stroke-width="0.5" stroke="#e2e2e2" fill="none" opacity="0.043125000000000004" transform="rotate(99.5625, 400, 400)"></polygon><polygon points="156.9375,621.78125 25.96875,883.71875 287.90625,883.71875" stroke-width="0.5" stroke="#e3e3e3" fill="none" opacity="0.0446875" transform="rotate(95.84375, 400, 400)"></polygon><polygon points="163.25,617.375 31.625,880.625 294.875,880.625" stroke-width="0.5" stroke="#e4e4e4" fill="none" opacity="0.04625" transform="rotate(92.125, 400, 400)"></polygon><polygon points="169.5625,612.96875 37.28125,877.53125 301.84375,877.53125" stroke-width="0.5" stroke="#e5e5e5" fill="none" opacity="0.0478125" transform="rotate(88.40625, 400, 400)"></polygon><polygon points="175.875,608.5625 42.9375,874.4375 308.8125,874.4375" stroke-width="0.5" stroke="#e6e6e6" fill="none" opacity="0.049375" transform="rotate(84.6875, 400, 400)"></polygon><polygon points="182.1875,604.15625 48.59375,871.34375 315.78125,871.34375" stroke-width="0.5" stroke="#e7e7e7" fill="none" opacity="0.0509375" transform="rotate(80.96875, 400, 400)"></polygon><polygon points="188.5,599.75 54.25,868.25 322.75,868.25" stroke-width="0.5" stroke="#e8e8e8" fill="none" opacity="0.0525" transform="rotate(77.25, 400, 400)"></polygon><polygon points="194.8125,595.34375 59.90625,865.15625 329.71875,865.15625" stroke-width="0.5" stroke="#e9e9e9" fill="none" opacity="0.0540625" transform="rotate(73.53125, 400, 400)"></polygon><polygon points="201.125,590.9375 65.5625,862.0625 336.6875,862.0625" stroke-width="0.5" stroke="#eaeaea" fill="none" opacity="0.055625" transform="rotate(69.8125, 400, 400)"></polygon><polygon points="207.4375,586.53125 71.21875,858.96875 343.65625,858.96875" stroke-width="0.5" stroke="#ebebeb" fill="none" opacity="0.0571875" transform="rotate(66.09375, 400, 400)"></polygon><polygon points="213.75,582.125 76.875,855.875 350.625,855.875" stroke-width="0.5" stroke="#ececec" fill="none" opacity="0.05875" transform="rotate(62.375, 400, 400)"></polygon><polygon points="220.0625,577.71875 82.53125,852.78125 357.59375,852.78125" stroke-width="0.5" stroke="#ededed" fill="none" opacity="0.0603125" transform="rotate(58.65625, 400, 400)"></polygon><polygon points="226.375,573.3125 88.1875,849.6875 364.5625,849.6875" stroke-width="0.5" stroke="#eeeeee" fill="none" opacity="0.061875" transform="rotate(54.9375, 400, 400)"></polygon><polygon points="232.6875,568.90625 93.84375,846.59375 371.53125,846.59375" stroke-width="0.5" stroke="#efefef" fill="none" opacity="0.0634375" transform="rotate(51.21875, 400, 400)"></polygon><polygon points="239,564.5 99.5,843.5 378.5,843.5" stroke-width="0.5" stroke="#f0f0f0" fill="none" opacity="0.065" transform="rotate(47.5, 400, 400)"></polygon><polygon points="245.3125,560.09375 105.15625,840.40625 385.46875,840.40625" stroke-width="0.5" stroke="#f1f1f1" fill="none" opacity="0.0665625" transform="rotate(43.78125, 400, 400)"></polygon><polygon points="251.625,555.6875 110.8125,837.3125 392.4375,837.3125" stroke-width="0.5" stroke="#f2f2f2" fill="none" opacity="0.06812499999999999" transform="rotate(40.0625, 400, 400)"></polygon><polygon points="257.9375,551.28125 116.46875,834.21875 399.40625,834.21875" stroke-width="0.5" stroke="#f3f3f3" fill="none" opacity="0.0696875" transform="rotate(36.34375, 400, 400)"></polygon><polygon points="264.25,546.875 122.125,831.125 406.375,831.125" stroke-width="0.5" stroke="#f4f4f4" fill="none" opacity="0.07125" transform="rotate(32.625, 400, 400)"></polygon><polygon points="270.5625,542.46875 127.78125,828.03125 413.34375,828.03125" stroke-width="0.5" stroke="#f5f5f5" fill="none" opacity="0.0728125" transform="rotate(28.90625, 400, 400)"></polygon><polygon points="276.875,538.0625 133.4375,824.9375 420.3125,824.9375" stroke-width="0.5" stroke="#f6f6f6" fill="none" opacity="0.074375" transform="rotate(25.1875, 400, 400)"></polygon><polygon points="283.1875,533.65625 139.09375,821.84375 427.28125,821.84375" stroke-width="0.5" stroke="#f7f7f7" fill="none" opacity="0.07593749999999999" transform="rotate(21.46875, 400, 400)"></polygon><polygon points="289.5,529.25 144.75,818.75 434.25,818.75" stroke-width="0.5" stroke="#f8f8f8" fill="none" opacity="0.0775" transform="rotate(17.75, 400, 400)"></polygon><polygon points="295.8125,524.84375 150.40625,815.65625 441.21875,815.65625" stroke-width="0.5" stroke="#f9f9f9" fill="none" opacity="0.07906250000000001" transform="rotate(14.03125, 400, 400)"></polygon><polygon points="302.125,520.4375 156.0625,812.5625 448.1875,812.5625" stroke-width="0.5" stroke="#fafafa" fill="none" opacity="0.080625" transform="rotate(10.3125, 400, 400)"></polygon><polygon points="308.4375,516.03125 161.71875,809.46875 455.15625,809.46875" stroke-width="0.5" stroke="#fafafa" fill="none" opacity="0.0821875" transform="rotate(6.59375, 400, 400)"></polygon><polygon points="314.75,511.625 167.375,806.375 462.125,806.375" stroke-width="0.5" stroke="#fbfbfb" fill="none" opacity="0.08374999999999999" transform="rotate(2.875, 400, 400)"></polygon><polygon points="321.0625,507.21875 173.03125,803.28125 469.09375,803.28125" stroke-width="0.5" stroke="#fcfcfc" fill="none" opacity="0.0853125" transform="rotate(-0.84375, 400, 400)"></polygon><polygon points="327.375,502.8125 178.6875,800.1875 476.0625,800.1875" stroke-width="0.5" stroke="#fdfdfd" fill="none" opacity="0.086875" transform="rotate(-4.5625, 400, 400)"></polygon><polygon points="333.6875,498.40625 184.34375,797.09375 483.03125,797.09375" stroke-width="0.5" stroke="#fefefe" fill="none" opacity="0.0884375" transform="rotate(-8.28125, 400, 400)"></polygon><polygon points="340,494 190,794 490,794" stroke-width="0.5" stroke="#ffffff" fill="none" opacity="0.09" transform="rotate(-12, 400, 400)"></polygon></g></svg>