<svg xmlns="http://www.w3.org/2000/svg" version="1.1" xmlns:xlink="http://www.w3.org/1999/xlink" xmlns:svgjs="http://svgjs.dev/svgjs" viewBox="0 0 800 800"><g transform="matrix(1,0,0,1,0,0)"><polygon points="774,591.5 773.5,592.5 774.5,592.5" stroke-width="0.5" stroke="#e0e0e0" fill="none" opacity="0.02" transform="rotate(220, 400, 400)"></polygon><polygon points="764.5,590.84375 759.75,600.34375 769.25,600.34375" stroke-width="0.5" stroke="#e1e1e1" fill="none" opacity="0.02125" transform="rotate(224.375, 400, 400)"></polygon><polygon points="755,590.1875 746,608.1875 764,608.1875" stroke-width="0.5" stroke="#e2e2e2" fill="none" opacity="0.0225" transform="rotate(228.75, 400, 400)"></polygon><polygon points="745.5,589.53125 732.25,616.03125 758.75,616.03125" stroke-width="0.5" stroke="#e3e3e3" fill="none" opacity="0.02375" transform="rotate(233.125, 400, 400)"></polygon><polygon points="736,588.875 718.5,623.875 753.5,623.875" stroke-width="0.5" stroke="#e4e4e4" fill="none" opacity="0.025" transform="rotate(237.5, 400, 400)"></polygon><polygon points="726.5,588.21875 704.75,631.71875 748.25,631.71875" stroke-width="0.5" stroke="#e5e5e5" fill="none" opacity="0.02625" transform="rotate(241.875, 400, 400)"></polygon><polygon points="717,587.5625 691,639.5625 743,639.5625" stroke-width="0.5" stroke="#e6e6e6" fill="none" opacity="0.0275" transform="rotate(246.25, 400, 400)"></polygon><polygon points="707.5,586.90625 677.25,647.40625 737.75,647.40625" stroke-width="0.5" stroke="#e7e7e7" fill="none" opacity="0.028749999999999998" transform="rotate(250.625, 400, 400)"></polygon><polygon points="698,586.25 663.5,655.25 732.5,655.25" stroke-width="0.5" stroke="#e8e8e8" fill="none" opacity="0.03" transform="rotate(255, 400, 400)"></polygon><polygon points="688.5,585.59375 649.75,663.09375 727.25,663.09375" stroke-width="0.5" stroke="#e9e9e9" fill="none" opacity="0.03125" transform="rotate(259.375, 400, 400)"></polygon><polygon points="679,584.9375 636,670.9375 722,670.9375" stroke-width="0.5" stroke="#eaeaea" fill="none" opacity="0.0325" transform="rotate(263.75, 400, 400)"></polygon><polygon points="669.5,584.28125 622.25,678.78125 716.75,678.78125" stroke-width="0.5" stroke="#ebebeb" fill="none" opacity="0.03375" transform="rotate(268.125, 400, 400)"></polygon><polygon points="660,583.625 608.5,686.625 711.5,686.625" stroke-width="0.5" stroke="#ececec" fill="none" opacity="0.034999999999999996" transform="rotate(272.5, 400, 400)"></polygon><polygon points="650.5,582.96875 594.75,694.46875 706.25,694.46875" stroke-width="0.5" stroke="#ededed" fill="none" opacity="0.03625" transform="rotate(276.875, 400, 400)"></polygon><polygon points="641,582.3125 581,702.3125 701,702.3125" stroke-width="0.5" stroke="#eeeeee" fill="none" opacity="0.0375" transform="rotate(281.25, 400, 400)"></polygon><polygon points="631.5,581.65625 567.25,710.15625 695.75,710.15625" stroke-width="0.5" stroke="#efefef" fill="none" opacity="0.03874999999999999" transform="rotate(285.625, 400, 400)"></polygon><polygon points="622,581 553.5,718 690.5,718" stroke-width="0.5" stroke="#f0f0f0" fill="none" opacity="0.039999999999999994" transform="rotate(290, 400, 400)"></polygon><polygon points="612.5,580.34375 539.75,725.84375 685.25,725.84375" stroke-width="0.5" stroke="#f1f1f1" fill="none" opacity="0.041249999999999995" transform="rotate(294.375, 400, 400)"></polygon><polygon points="603,579.6875 526,733.6875 680,733.6875" stroke-width="0.5" stroke="#f2f2f2" fill="none" opacity="0.042499999999999996" transform="rotate(298.75, 400, 400)"></polygon><polygon points="593.5,579.03125 512.25,741.53125 674.75,741.53125" stroke-width="0.5" stroke="#f3f3f3" fill="none" opacity="0.04375" transform="rotate(303.125, 400, 400)"></polygon><polygon points="584,578.375 498.5,749.375 669.5,749.375" stroke-width="0.5" stroke="#f4f4f4" fill="none" opacity="0.045" transform="rotate(307.5, 400, 400)"></polygon><polygon points="574.5,577.71875 484.75,757.21875 664.25,757.21875" stroke-width="0.5" stroke="#f5f5f5" fill="none" opacity="0.04625" transform="rotate(311.875, 400, 400)"></polygon><polygon points="565,577.0625 471,765.0625 659,765.0625" stroke-width="0.5" stroke="#f6f6f6" fill="none" opacity="0.0475" transform="rotate(316.25, 400, 400)"></polygon><polygon points="555.5,576.40625 457.25,772.90625 653.75,772.90625" stroke-width="0.5" stroke="#f7f7f7" fill="none" opacity="0.048749999999999995" transform="rotate(320.625, 400, 400)"></polygon><polygon points="546,575.75 443.5,780.75 648.5,780.75" stroke-width="0.5" stroke="#f8f8f8" fill="none" opacity="0.049999999999999996" transform="rotate(325, 400, 400)"></polygon><polygon points="536.5,575.09375 429.75,788.59375 643.25,788.59375" stroke-width="0.5" stroke="#f9f9f9" fill="none" opacity="0.05125" transform="rotate(329.375, 400, 400)"></polygon><polygon points="527,574.4375 416,796.4375 638,796.4375" stroke-width="0.5" stroke="#fafafa" fill="none" opacity="0.05249999999999999" transform="rotate(333.75, 400, 400)"></polygon><polygon points="517.5,573.78125 402.25,804.28125 632.75,804.28125" stroke-width="0.5" stroke="#fafafa" fill="none" opacity="0.05374999999999999" transform="rotate(338.125, 400, 400)"></polygon><polygon points="508,573.125 388.5,812.125 627.5,812.125" stroke-width="0.5" stroke="#fbfbfb" fill="none" opacity="0.05499999999999999" transform="rotate(342.5, 400, 400)"></polygon><polygon points="498.5,572.46875 374.75,819.96875 622.25,819.96875" stroke-width="0.5" stroke="#fcfcfc" fill="none" opacity="0.056249999999999994" transform="rotate(346.875, 400, 400)"></polygon><polygon points="489,571.8125 361,827.8125 617,827.8125" stroke-width="0.5" stroke="#fdfdfd" fill="none" opacity="0.057499999999999996" transform="rotate(351.25, 400, 400)"></polygon><polygon points="479.5,571.15625 347.25,835.65625 611.75,835.65625" stroke-width="0.5" stroke="#fefefe" fill="none" opacity="0.05875" transform="rotate(355.625, 400, 400)"></polygon><polygon points="470,570.5 333.5,843.5 606.5,843.5" stroke-width="0.5" stroke="#ffffff" fill="none" opacity="0.06" transform="rotate(360, 400, 400)"></polygon></g></svg>